PathFileType	4	(X/Y/Z)	3_coords_data.trc
DataRate	CameraRate	NumFrames	NumMarkers	Units	OrigDataRate	OrigDataStartFrame	OrigNumFrames
30.0	30.0	4	21	m	30.0	1	65
Frame#	Time	THUMB_TIP	THUMB_IP	THUMB_MCP	THUMB_CMC	INDEX_TIP	INDEX_DIP	INDEX_PIP	INDEX_MCP	MIDDLE_TIP	MIDDLE_DIP	MIDDLE_PIP	MIDDLE_MCP	RING_TIP	RING_DIP	RING_PIP	RING_MCP	PINKY_TIP	PINKY_DIP	PINKY_PIP	PINKY_MCP	WRIST
X1	Y1	Z1	X2	Y2	Z2	X3	Y3	Z3	X4	Y4	Z4	X5	Y5	Z5	X6	Y6	Z6	X7	Y7	Z7	X8	Y8	Z8	X9	Y9	Z9	X10	Y10	Z10	X11	Y11	Z11	X12	Y12	Z12	X13	Y13	Z13	X14	Y14	Z14	X15	Y15	Z15	X16	Y16	Z16	X17	Y17	Z17	X18	Y18	Z18	X19	Y19	Z19	X20	Y20	Z20	X21	Y21	Z21
0	-2.749317978547796e-18	0.5395456474916335	-0.00332068893065518	-0.12068653126402612	0.5211249191609642	-0.010101050520367805	-0.1326323867997517	0.49544918870885735	-0.017467141535545072	-0.11665372700279492	0.47744914432338803	-0.023509830963365785	-0.07628821812950015	0.4982500226651916	0.0012307621718635753	-0.11013745020644405	0.514484902762818	-0.0017346273469270868	-0.11759634645304412	0.5277617953556608	0.017685552437408214	-0.12646147889549575	0.49031630153678496	0.030789485184774867	-0.11097735692448851	0.498628092433664	-0.018034313790577516	-0.09400104051389618	0.51651144420641	-0.018420637709478216	-0.09683590968228878	0.5352136396450244	0.0034441390111110692	-0.10148015071120303	0.5038507255277097	0.034050920122862816	-0.09277724952554889	0.5261697685971426	-0.001186362026536547	-0.08680434801180092	0.5148378282369184	-0.013627966218680343	-0.08033955004138049	0.5351982540961268	0.0005971763228951321	-0.08215017355374965	0.5136576864786676	0.03401627537519858	-0.07480928809966425	0.5269317109562061	-0.01260680848687179	-0.0731150724436761	0.5163070066730291	-0.024473151915093805	-0.06684565839302276	0.5334700367738933	-0.012599566971924991	-0.06455210277909501	0.521605357695744	0.020682488616496464	-0.057312101592510156	0.462283081001861	-0.023011742144276925	-0.051989820119430985
1	0.03333333333333339	0.5389080697862894	-0.0029932649814047307	-0.11847142823912166	0.5211771373794815	-0.00956987594831582	-0.13152371632110604	0.494797392492795	-0.016804592095444826	-0.11667151305075535	0.47783334527278176	-0.02391566115165733	-0.07603232262088905	0.49880023531694373	-0.0003314485017964497	-0.11066010931132125	0.515232184469655	-0.002849622738084201	-0.1178468920100263	0.5280652526116459	0.017055817258648354	-0.12627871586963668	0.4906210672898733	0.030505072827905155	-0.11109034517948152	0.4984501588664144	-0.017019203140806183	-0.09482748986527928	0.5163957556985347	-0.017574302871262826	-0.09720391967241448	0.5353070582612727	0.0040966096749918135	-0.10190963266761233	0.5035975725175251	0.03422242225211769	-0.09279415947995195	0.5264672807516362	-0.0011053720778911869	-0.0872667266940137	0.5152526753051593	-0.013639043283805163	-0.08077521602376964	0.5357203831047562	0.0004376455878459806	-0.0825358258161577	0.5139372035188554	0.03366646811016316	-0.0750485516186441	0.5268516608763416	-0.01257862636064655	-0.07310453916483806	0.5163968837173659	-0.02461070227883244	-0.0668654059193326	0.5336635634481885	-0.012815952523841823	-0.06497922769595327	0.52183415237622	0.0203745528330449	-0.057276056995205216	0.4622830810018609	-0.023011742144276925	-0.051989820119430985
2	0.06666666666666676	0.538322630640969	-0.002841055095631595	-0.11662794825304668	0.5212118837426041	-0.009219924049335249	-0.13057543445850944	0.49430074350192355	-0.016339991395589504	-0.11665009166448004	0.47810623513340045	-0.02422406781127684	-0.07583993070212364	0.4992604468662619	-0.0015603056791235748	-0.11107923727553348	0.51582820815118	-0.0037224421160269028	-0.11806740241626867	0.5282923927031334	0.016567500982868744	-0.12612793251660454	0.49084913156938803	0.030285157153410736	-0.11117921354617288	0.4983081681032372	-0.016246146072669387	-0.09553562973438406	0.5163023311640886	-0.016941676072022016	-0.09746600113893056	0.5353801485709416	0.004568200727567029	-0.10223796436775806	0.503419755276759	0.03433314659030051	-0.0928183476414941	0.5264845390389804	-0.0008995815793869655	-0.0876636242456616	0.5155709479654711	-0.013662950286706943	-0.08110695213847002	0.53612368416729	0.00029322681730059585	-0.08283615260690003	0.5141633662817696	0.03338063060307994	-0.07524082620945732	0.5264792327636132	-0.012287686764368644	-0.07305093551369118	0.5164697057688219	-0.024734626567317286	-0.06689601399653772	0.5338138821012502	-0.013008471400225208	-0.06531840461937416	0.5220252969166461	0.020112669195848976	-0.05726217994770416	0.4622830810018608	-0.023011742144276925	-0.051989820119430985
3	0.10000000000000014	0.5378235110254285	-0.0028123892469310574	-0.11516753307027111	0.5212425046460262	-0.00900863506514571	-0.1298193850080459	0.493943886222864	-0.01603522956284309	-0.11661967281605012	0.4782888377390827	-0.024450134641261223	-0.07570514202940087	0.49961333592091384	-0.0024769498702196246	-0.11139024675305481	0.5162703469855913	-0.004363917486890467	-0.11824468586977677	0.5284566927549829	0.016207671068679708	-0.1260108016356637	0.491012390767541	0.030121584434013027	-0.11124721949800975	0.4982086559116825	-0.015703554194710923	-0.0961086493782668	0.5162370925741305	-0.01649790424353914	-0.0976398187052942	0.5354433963925513	0.004881718335483454	-0.10248122160249845	0.503309818617174	0.03439074260699981	-0.09284801928463765	0.5250692078681127	0.00016846830624517306	-0.08819107109936986	0.5158030583584826	-0.013697867899916338	-0.08134540141095525	0.5364212967667675	0.00016327799287707556	-0.08305912789958342	0.5143417686319833	0.033154139220512246	-0.07538981588322913	0.5239255166168343	-0.010452361961157841	-0.0724920584594288	0.5165253509250319	-0.024849939333155047	-0.06692902749140223	0.5339270924826502	-0.01318140672297774	-0.06557375759684453	0.5221826372215483	0.019893339152305067	-0.057266386959546334	0.4622830810018609	-0.023011742144276925	-0.051989820119430985
